<?xml version="1.0" encoding="UTF-8"?>
<!-- Generator: Adobe Illustrator 19.2.1, SVG Export Plug-In . SVG Version: 6.00 Build 0)  -->
<svg id="layer" width="600.02625" height="271.60001" version="1.1" viewBox="0 0 600.02625 271.60001" xml:space="preserve" xmlns="http://www.w3.org/2000/svg">
<style id="style845" type="text/css">
	.st0{fill-rule:evenodd;clip-rule:evenodd;fill:#000066;}
	.st1{fill-rule:evenodd;clip-rule:evenodd;fill:#FFF100;}
	.st2{fill-rule:evenodd;clip-rule:evenodd;fill:#FFFFFF;}
</style>
<path id="path847" class="st0" d="m0.12622353 44.9v226.7h599.8999965v-226.9h-43c-1.6 0.7-125.3 0.2-138.9 0.2h-139.4-278.5999965"/>
<path id="path849" class="st1" d="m0.12622353 44.9h278.4999965 139.4c13.5 0 137.2 0.5 138.9-0.2 0.6-2.9 0.2-38.5 0.2-44.7l-35 2.3c-6.1 0.8-21.2 1.2-26.2 1.9-2.9 0.4-6 0.3-9 0.5-5.4 0.4-11.9 0.8-17.3 1.4-3 0.3-6 0.1-9 0.5-6.1 0.8-19.9 1.2-26.2 2l-35.2 2.5c-2.5 0.4-6 0.5-8.6 0.6l-17.3 1.3c-2.9 0.4-6 0.3-9 0.5-5.6 0.4-12 1-17.6 1.4-2.9 0.2-5.8 0.1-8.7 0.5-2.4 0.3-6.1 0.6-8.9 0.6l-43.9 3.3c-2.9 0.1-6.2 0.2-8.9 0.6l-34.9 2.4c-6 0.7-22.9 1.4-26.3 1.9-5 0.7-20.4 1.1-26.2 1.9l-35.2 2.5c-2.9 0.4-6 0.3-9 0.5-2.5 0.2-6.1 0.7-8.8 0.7-5.6 0-19.3 1.7-26.4 1.8l-17.399996 1.3c-2.9 0.4-6 0.3-9 0.5-5.6 0.4-12 1-17.6 1.4-2.9 0.2-5.8 0.1-8.7 0.5-2.4 0.3-6.1 0.6-8.9 0.6l-17.7 1.4c-2.8 0.4-5.8 0.3-8.7 0.5l-17.6000005 1.4c-5 0.6-3.79999997-0.2-3.79999997 5.7"/>
<path id="path851" class="st2" d="m421.72622 224.4h22.3c5.4 0 6.9-3.7 8.5-8 1.5-3.9 3.1-8 4.5-11.9l1.6-0.1h59.3c2.4 0 1.9 0.7 3.6 4.9 0.8 2 1.7 4.2 2.5 6.2 1.8 4.5 2.9 8.8 8.8 8.8 28.8 0 25.2 1.9 21.3-7.4-8-19.1-17.9-41.5-26.3-60.5l-22.4-51.5c-5.9-13.5-5.2-12.8-27.9-12.4l-1.5 0.1c-1.1 1.5-48.4 111.6-53.7 124.1-0.6 1.4-1.1 2.6-1.8 4.1-0.8 2.3-1.9 3.6 1.2 3.6"/>
<path id="path853" class="st2" d="m44.226224 155.6c0 11.6 1.2 21.8 6.2 32 7.4 15 18.5 25.8 33.4 33.2 11.8 5.9 18.799996 6.9 31.899996 6.9 14.7 0 29.1-5.6 39.5-13.6 2.9-2.3 16-14 15.5-16.4-0.1-0.7-5.2-3.6-6.1-4.2-2.1-1.3-4.1-2.6-6.3-3.9-8-4.9-10.5-8-17.1-1.2-5.5 5.7-17.5 10.6-26.2 10.6-17.699996 0-32.099996-8.6-38.599996-23.4-2.4-5.6-3.5-11.5-3.5-18.1 0-20.8 18.6-39.8 39.499996-39.8 7.4 0 12.8 1 19.3 4.1 7.3 3.5 9 6.8 12 8.9 5.2 3.6 9.4-0.3 14.3-3.4 2.6-1.6 11.4-6.7 12.7-8.2-0.1-1.5-1.1-2.3-1.9-3.3-2.9-3.4-4.6-5.5-8-8.5-2-1.8-3.5-3.2-5.9-5.1-1.9-1.5-4.4-3.1-6.6-4.4-9.9-5.8-21.7-9-35.5-9-36.599996 0-68.599996 30.2-68.599996 66.8"/>
<path id="path855" class="st2" d="m312.22622 130.7c0 29.3 24.6 32.9 46.9 41.4 6.8 2.6 14.7 5.9 14.7 14.2 0 8.9-9.7 13.9-19.8 13.9-5.6 0-11.8-1.5-16.7-3.1-5.9-2-11.1-5.9-13.7-5.9-5.3 0-6.4 5.4-8.2 9.6-1.1 2.6-5.1 10.8-5.3 13 1.2 1.3 6.2 4.2 8.4 5.4 25.6 13.9 67.6 12.1 81.7-16.4 6-12 6.8-31.1-3.2-40.9-12.6-12.3-21.6-12.9-39.1-18.7-6.9-2.3-15.4-5.7-15.4-14 0-9.4 9.8-13.6 19.6-13.6 13.6 0 23.4 8.4 26.8 8.7 5.8 0.6 6.7-4.8 8.6-9.1 0.9-2.1 5-11 5.2-12.7-2.8-3.4-10.6-7.5-15.9-9.6-22.4-8.9-57.1-4.5-69.7 19.4-2.8 5-4.9 12-4.9 18.4"/>
<path id="path857" class="st2" d="m203.52622 94.9v122.6c0 4.1 1.8 7 5.9 7h82c1.4 0 1.7 0 1.7-1.5v-19c0-6.2-4.3-6.3-10.2-6.3-6.9 0-48.9 0.3-49.7-0.2l-0.3-0.5c-0.8-2.1-0.3-88.1-0.3-96.5 0-4.7-1.5-7.7-6.4-7.7h-20.9c-1.8-0.1-1.8 0.2-1.8 2.1"/>
<path id="path859" class="st0" d="m468.52622 179.3h38.1c-0.2-1.4-14.3-37.6-16.2-42.6-0.6-1.5-1.4-5.4-2.8-5.5-1.5-0.1-2.4 4.3-2.8 5.4-2.3 6.1-15.9 40.3-16.3 42.7"/>
</svg>
