<svg fill="none" height="41" viewBox="0 0 41 41" width="41" xmlns="http://www.w3.org/2000/svg"><path d="m20.029 20.2893v-8.726c-6.2316 0-11.30308-5.07144-11.30308-11.303046h-8.72592c0 11.062746 8.96624 20.029046 20.029 20.029046z" fill="#1c1828"/><path d="m40.0582 20.2893v-8.726c-6.2317 0-11.3031-5.07144-11.3031-11.303046h-8.726c0 11.062746 8.9663 20.029046 20.0291 20.029046z" fill="#6700f6"/><g fill="#1c1828"><path d="m20.029 40.2603v-8.7259c-6.2316 0-11.30308-5.0715-11.30308-11.3031h-8.72592c0 11.0627 8.96624 20.029 20.029 20.029z"/><path d="m20.0291 20.2313v8.7259c6.2317 0 11.3031 5.0715 11.3031 11.3031h8.726c0-11.0628-8.9663-20.029-20.0291-20.029z"/></g></svg>